<?xml version="1.0" encoding="UTF-8"?>
<svg version="1.1" xmlns="http://www.w3.org/2000/svg" width="512" height="512">
<path d="M0 0 C0.7208666 -0.00205263 1.4417332 -0.00410527 2.18444425 -0.0062201 C4.61267191 -0.01189817 7.04084301 -0.01043186 9.46907616 -0.00901413 C11.22256707 -0.01159731 12.9760574 -0.01461034 14.7295469 -0.01801753 C19.55827676 -0.02609645 24.38699176 -0.0278776 29.21572757 -0.028615 C34.41971852 -0.03046402 39.62370173 -0.03801063 44.82768822 -0.04475021 C56.21205619 -0.05834076 67.59642065 -0.06435948 78.98079538 -0.06876087 C86.08799788 -0.07152228 93.19519901 -0.07575947 100.30240059 -0.08026505 C119.97615092 -0.09245904 139.64990015 -0.10275785 159.32365417 -0.10614014 C161.21297361 -0.10646949 161.21297361 -0.10646949 163.14046111 -0.10680549 C164.40304196 -0.10702377 165.66562281 -0.10724204 166.96646369 -0.10746694 C169.52498221 -0.1079104 172.08350074 -0.10835697 174.64201927 -0.10880661 C175.91113605 -0.10902804 177.18025284 -0.10924947 178.4878277 -0.10947761 C199.05085478 -0.11342539 219.61384642 -0.13087822 240.17685981 -0.15416613 C261.28340776 -0.17787683 282.38993793 -0.19034187 303.49649942 -0.19150805 C315.349099 -0.19242501 327.20165241 -0.19818255 339.05423927 -0.21632767 C349.14754716 -0.23172489 359.24079461 -0.23685136 369.334112 -0.22858956 C374.48365179 -0.22468164 379.63306986 -0.22561969 384.78259468 -0.23964691 C389.49914075 -0.25237715 394.21547354 -0.25119594 398.93201928 -0.2390562 C400.63597149 -0.23709768 402.33993876 -0.24018478 404.04386981 -0.24890056 C420.20838801 -0.32633165 432.67607851 2.61545638 444.80852318 13.90095901 C455.47702521 25.37311469 456.32804431 38.54492292 456.27042198 53.41910172 C456.27459881 55.17563568 456.28007823 56.93216694 456.28674179 58.68869323 C456.30116951 63.4981263 456.29696001 68.30738762 456.28957498 73.11682999 C456.28483896 78.31056005 456.29735705 83.50425318 456.30759239 88.69797134 C456.32477758 98.86645844 456.32562092 109.03488373 456.32037949 119.20338158 C456.3163358 127.47010553 456.31778372 135.73681123 456.32312775 144.00353432 C456.32387617 145.18072991 456.32462459 146.3579255 456.32539569 147.57079368 C456.32692719 149.96238584 456.32846554 152.353978 456.33001066 154.74557015 C456.34373486 177.16762161 456.33829872 199.58963818 456.32682545 222.01168885 C456.31689464 242.5141274 456.32983128 263.01647568 456.35375964 283.51890031 C456.37815625 304.5815902 456.38775703 325.64423805 456.38110691 346.70694178 C456.37761576 358.52769673 456.37983988 370.34838226 456.39735794 382.16912651 C456.41208697 392.23258216 456.41270618 402.29591954 456.39528703 412.35937289 C456.38678024 417.49112723 456.38461973 422.62267034 456.39993858 427.7544136 C456.41380515 432.45799122 456.40899714 437.16117704 456.38969935 441.86473211 C456.38594506 443.56047987 456.38884472 445.25625916 456.399311 446.95197878 C456.48570335 462.02874968 454.15640834 476.04348135 443.66008568 487.57283401 C434.08830365 496.7805546 422.59051581 501.37404115 409.32852459 501.38869667 C408.60900652 501.39220275 407.88948845 501.39570882 407.14816681 501.39932114 C404.74852231 501.40859007 402.34912291 501.40372357 399.94946861 501.3988533 C398.20703662 501.40259184 396.4646063 501.40719417 394.72217864 501.41258395 C389.9424664 501.42480426 385.16282421 501.42455461 380.38309991 501.4221952 C375.22478686 501.42178678 370.06649619 501.43282855 364.90819359 501.44231033 C354.80495186 501.4589162 344.70173348 501.4644197 334.59847925 501.46553509 C326.38462808 501.4664858 318.17078461 501.47059723 309.95693588 501.47693634 C286.66227627 501.49454793 263.36763508 501.50377539 240.07296876 501.50227539 C238.81740826 501.50219548 237.56184776 501.50211557 236.26823997 501.50203323 C234.38259597 501.50191059 234.38259597 501.50191059 232.45885815 501.50178547 C212.08885919 501.50097269 191.71893419 501.52010875 171.34895662 501.54830997 C150.42645571 501.57704723 129.50399086 501.59084978 108.58146971 501.58912241 C96.83781002 501.58845879 85.09422785 501.59393919 73.35058594 501.61547852 C63.35113373 501.6337014 53.3517942 501.63802852 43.35233257 501.62445967 C38.25299159 501.61793556 33.1538667 501.61779281 28.05454636 501.63516617 C23.38050176 501.65092646 18.70684407 501.64800306 14.03280874 501.6305979 C12.34776542 501.62753451 10.662693 501.63113532 8.977684 501.64231806 C-6.02926972 501.73526558 -20.14691751 499.42719872 -31.55866432 488.87361526 C-40.67092869 479.29597989 -45.36276604 468.80719522 -45.37173367 455.53759575 C-45.37494014 454.81380214 -45.37814662 454.09000854 -45.38145027 453.34428179 C-45.38972116 450.93011893 -45.38383628 448.51620605 -45.37795448 446.10203934 C-45.38097649 444.34922001 -45.38486623 442.59640201 -45.38954705 440.84358633 C-45.39982935 436.03527562 -45.39764462 431.22703946 -45.39336646 426.41872263 C-45.39089967 421.22979459 -45.39991281 416.04088451 -45.40740395 410.85196304 C-45.4201542 400.68956639 -45.42194423 390.52719615 -45.41960368 380.36479284 C-45.41782075 372.10467295 -45.41956963 363.84456107 -45.42382812 355.58444214 C-45.42442331 354.40888476 -45.4250185 353.23332738 -45.42563173 352.02214705 C-45.42684348 349.63401163 -45.42805761 347.24587622 -45.4292741 344.8577408 C-45.44015087 322.46107157 -45.43798648 300.06441739 -45.43188926 277.6677473 C-45.42671981 257.17933697 -45.43797605 236.69097418 -45.45698748 216.20257325 C-45.47636001 195.16369632 -45.48462291 174.12484189 -45.48086423 153.08595598 C-45.47895132 141.27477922 -45.48144852 129.46364293 -45.49557877 117.65247345 C-45.50748606 107.5976857 -45.50890473 97.54296333 -45.4967886 87.48817469 C-45.49089541 82.35886281 -45.48981272 77.22967055 -45.501791 72.10036659 C-45.51263426 67.40247887 -45.5095649 62.70481087 -45.49552932 58.0069335 C-45.49287811 56.30983242 -45.49526221 54.61271421 -45.50326518 52.91562994 C-45.54122637 44.26334821 -45.43231512 36.27867649 -42.11725807 28.13142776 C-41.83761107 27.42514508 -41.55796407 26.71886239 -41.26984292 25.9911772 C-37.33828207 16.58806437 -28.76633898 7.92005799 -19.37897682 3.98299026 C-16.64128982 2.96043697 -13.90654662 2.00281347 -11.11725807 1.13142776 C-10.26853345 0.86334049 -10.26853345 0.86334049 -9.40266287 0.58983731 C-6.24504578 -0.04352174 -3.22078422 0.00311907 0 0 Z " fill="#5EB4E1" transform="translate(50.117258071899414,4.868572235107422)"/>
<path d="M0 0 C0.7208666 -0.00205263 1.4417332 -0.00410527 2.18444425 -0.0062201 C4.61267191 -0.01189817 7.04084301 -0.01043186 9.46907616 -0.00901413 C11.22256707 -0.01159731 12.9760574 -0.01461034 14.7295469 -0.01801753 C19.55827676 -0.02609645 24.38699176 -0.0278776 29.21572757 -0.028615 C34.41971852 -0.03046402 39.62370173 -0.03801063 44.82768822 -0.04475021 C56.21205619 -0.05834076 67.59642065 -0.06435948 78.98079538 -0.06876087 C86.08799788 -0.07152228 93.19519901 -0.07575947 100.30240059 -0.08026505 C119.97615092 -0.09245904 139.64990015 -0.10275785 159.32365417 -0.10614014 C161.21297361 -0.10646949 161.21297361 -0.10646949 163.14046111 -0.10680549 C164.40304196 -0.10702377 165.66562281 -0.10724204 166.96646369 -0.10746694 C169.52498221 -0.1079104 172.08350074 -0.10835697 174.64201927 -0.10880661 C175.91113605 -0.10902804 177.18025284 -0.10924947 178.4878277 -0.10947761 C199.05085478 -0.11342539 219.61384642 -0.13087822 240.17685981 -0.15416613 C261.28340776 -0.17787683 282.38993793 -0.19034187 303.49649942 -0.19150805 C315.349099 -0.19242501 327.20165241 -0.19818255 339.05423927 -0.21632767 C349.14754716 -0.23172489 359.24079461 -0.23685136 369.334112 -0.22858956 C374.48365179 -0.22468164 379.63306986 -0.22561969 384.78259468 -0.23964691 C389.49914075 -0.25237715 394.21547354 -0.25119594 398.93201928 -0.2390562 C400.63597149 -0.23709768 402.33993876 -0.24018478 404.04386981 -0.24890056 C420.20838801 -0.32633165 432.67607851 2.61545638 444.80852318 13.90095901 C455.47702521 25.37311469 456.32804431 38.54492292 456.27042198 53.41910172 C456.27459881 55.17563568 456.28007823 56.93216694 456.28674179 58.68869323 C456.30116951 63.4981263 456.29696001 68.30738762 456.28957498 73.11682999 C456.28483896 78.31056005 456.29735705 83.50425318 456.30759239 88.69797134 C456.32477758 98.86645844 456.32562092 109.03488373 456.32037949 119.20338158 C456.3163358 127.47010553 456.31778372 135.73681123 456.32312775 144.00353432 C456.32387617 145.18072991 456.32462459 146.3579255 456.32539569 147.57079368 C456.32692719 149.96238584 456.32846554 152.353978 456.33001066 154.74557015 C456.34373486 177.16762161 456.33829872 199.58963818 456.32682545 222.01168885 C456.31689464 242.5141274 456.32983128 263.01647568 456.35375964 283.51890031 C456.37815625 304.5815902 456.38775703 325.64423805 456.38110691 346.70694178 C456.37761576 358.52769673 456.37983988 370.34838226 456.39735794 382.16912651 C456.41208697 392.23258216 456.41270618 402.29591954 456.39528703 412.35937289 C456.38678024 417.49112723 456.38461973 422.62267034 456.39993858 427.7544136 C456.41380515 432.45799122 456.40899714 437.16117704 456.38969935 441.86473211 C456.38594506 443.56047987 456.38884472 445.25625916 456.399311 446.95197878 C456.48570335 462.02874968 454.15640834 476.04348135 443.66008568 487.57283401 C434.08830365 496.7805546 422.59051581 501.37404115 409.32852459 501.38869667 C408.60900652 501.39220275 407.88948845 501.39570882 407.14816681 501.39932114 C404.74852231 501.40859007 402.34912291 501.40372357 399.94946861 501.3988533 C398.20703662 501.40259184 396.4646063 501.40719417 394.72217864 501.41258395 C389.9424664 501.42480426 385.16282421 501.42455461 380.38309991 501.4221952 C375.22478686 501.42178678 370.06649619 501.43282855 364.90819359 501.44231033 C354.80495186 501.4589162 344.70173348 501.4644197 334.59847925 501.46553509 C326.38462808 501.4664858 318.17078461 501.47059723 309.95693588 501.47693634 C286.66227627 501.49454793 263.36763508 501.50377539 240.07296876 501.50227539 C238.81740826 501.50219548 237.56184776 501.50211557 236.26823997 501.50203323 C234.38259597 501.50191059 234.38259597 501.50191059 232.45885815 501.50178547 C212.08885919 501.50097269 191.71893419 501.52010875 171.34895662 501.54830997 C150.42645571 501.57704723 129.50399086 501.59084978 108.58146971 501.58912241 C96.83781002 501.58845879 85.09422785 501.59393919 73.35058594 501.61547852 C63.35113373 501.6337014 53.3517942 501.63802852 43.35233257 501.62445967 C38.25299159 501.61793556 33.1538667 501.61779281 28.05454636 501.63516617 C23.38050176 501.65092646 18.70684407 501.64800306 14.03280874 501.6305979 C12.34776542 501.62753451 10.662693 501.63113532 8.977684 501.64231806 C-6.02926972 501.73526558 -20.14691751 499.42719872 -31.55866432 488.87361526 C-40.67092869 479.29597989 -45.36276604 468.80719522 -45.37173367 455.53759575 C-45.37494014 454.81380214 -45.37814662 454.09000854 -45.38145027 453.34428179 C-45.38972116 450.93011893 -45.38383628 448.51620605 -45.37795448 446.10203934 C-45.38097649 444.34922001 -45.38486623 442.59640201 -45.38954705 440.84358633 C-45.39982935 436.03527562 -45.39764462 431.22703946 -45.39336646 426.41872263 C-45.39089967 421.22979459 -45.39991281 416.04088451 -45.40740395 410.85196304 C-45.4201542 400.68956639 -45.42194423 390.52719615 -45.41960368 380.36479284 C-45.41782075 372.10467295 -45.41956963 363.84456107 -45.42382812 355.58444214 C-45.42442331 354.40888476 -45.4250185 353.23332738 -45.42563173 352.02214705 C-45.42684348 349.63401163 -45.42805761 347.24587622 -45.4292741 344.8577408 C-45.44015087 322.46107157 -45.43798648 300.06441739 -45.43188926 277.6677473 C-45.42671981 257.17933697 -45.43797605 236.69097418 -45.45698748 216.20257325 C-45.47636001 195.16369632 -45.48462291 174.12484189 -45.48086423 153.08595598 C-45.47895132 141.27477922 -45.48144852 129.46364293 -45.49557877 117.65247345 C-45.50748606 107.5976857 -45.50890473 97.54296333 -45.4967886 87.48817469 C-45.49089541 82.35886281 -45.48981272 77.22967055 -45.501791 72.10036659 C-45.51263426 67.40247887 -45.5095649 62.70481087 -45.49552932 58.0069335 C-45.49287811 56.30983242 -45.49526221 54.61271421 -45.50326518 52.91562994 C-45.54122637 44.26334821 -45.43231512 36.27867649 -42.11725807 28.13142776 C-41.83761107 27.42514508 -41.55796407 26.71886239 -41.26984292 25.9911772 C-37.33828207 16.58806437 -28.76633898 7.92005799 -19.37897682 3.98299026 C-16.64128982 2.96043697 -13.90654662 2.00281347 -11.11725807 1.13142776 C-10.26853345 0.86334049 -10.26853345 0.86334049 -9.40266287 0.58983731 C-6.24504578 -0.04352174 -3.22078422 0.00311907 0 0 Z M173.88274193 45.13142776 C173.04211205 45.30271194 172.20148216 45.47399612 171.33537865 45.65047073 C121.22193363 55.88954753 73.41972849 88.8263196 44.88274193 131.13142776 C43.7182924 132.98621937 42.58432709 134.85690729 41.45378685 136.73250198 C37.21620332 143.75102989 32.37857644 148.49669534 26.02336693 153.56502151 C4.0909311 171.13604336 -6.77990385 201.09668219 -10.67585182 227.98689651 C-12.90405131 249.50031081 -12.65828858 272.43901293 -6.11725807 293.13142776 C-5.84961647 293.98349808 -5.58197487 294.83556839 -5.30622292 295.71345901 C1.62328144 317.11495108 13.02806997 337.67589234 31.38274193 351.31892776 C36.71714157 355.51452299 39.72024357 360.16449299 43.12199974 365.91316605 C60.57285277 395.36062511 88.74737862 419.49443824 118.88274193 435.13142776 C120.17711973 435.82393619 121.47139026 436.51664518 122.76555443 437.20955276 C141.85940638 447.25744544 162.5801623 453.82537945 183.88274193 457.13142776 C185.51264061 457.38738724 185.51264061 457.38738724 187.17546654 457.64851761 C196.33576133 458.98770343 205.30851798 459.53123116 214.57024193 459.50642776 C215.62533455 459.50660904 215.62533455 459.50660904 216.70174217 459.50679398 C235.99201533 459.46018537 255.5805678 457.49371309 273.88274193 451.13142776 C275.37050175 450.6558352 276.85882901 450.18201563 278.34758568 449.70955276 C306.47572317 440.56200825 331.88843705 426.26081844 353.62492943 406.20174026 C355.64749447 404.3471391 357.71758177 402.58107616 359.82024193 400.81892776 C398.22698653 367.2033666 421.15402057 313.06281399 424.71721458 262.85750198 C426.1695128 238.93956418 424.33424013 214.01439743 416.88274193 191.13142776 C416.49267949 189.79608494 416.1047778 188.46010964 415.71867943 187.12361526 C406.09927523 155.00786457 387.8834139 127.12443642 364.88274193 103.13142776 C363.98813255 102.18396683 363.09352318 101.23650589 362.17180443 100.26033401 C337.70854691 74.97206928 305.52863926 57.67041495 271.88274193 48.13142776 C271.02116478 47.87595169 270.15958763 47.62047562 269.27190208 47.35725784 C238.84508577 38.59818972 204.66262055 38.3186025 173.88274193 45.13142776 Z " fill="#D6DEE3" transform="translate(50.117258071899414,4.868572235107422)"/>
<path d="M0 0 C1.13792747 -0.01065742 1.13792747 -0.01065742 2.29884338 -0.02153015 C34.41067642 -0.25399117 34.41067642 -0.25399117 47.79296875 3.203125 C48.67484863 3.42887207 49.55672852 3.65461914 50.46533203 3.88720703 C95.7590052 15.86921063 133.5212276 43.84037801 157.203125 84.48925781 C169.37140064 106.247952 179.13904565 133.40228065 178.85546875 158.640625 C178.84644531 159.69121094 178.83742188 160.74179688 178.828125 161.82421875 C178.81072266 163.00177734 178.81072266 163.00177734 178.79296875 164.203125 C176.94561436 164.44883223 175.08854854 164.62199429 173.23046875 164.765625 C172.19792969 164.87003906 171.16539062 164.97445312 170.1015625 165.08203125 C164.74243807 163.65841496 162.65360535 159.75518418 159.79296875 155.203125 C157.52592186 151.19348976 155.48051746 147.10137418 153.48046875 142.953125 C152.95646484 141.8909375 152.43246094 140.82875 151.89257812 139.734375 C149.70356076 135.2722551 147.5927094 130.83836043 145.79296875 126.203125 C140.84296875 126.698125 140.84296875 126.698125 135.79296875 127.203125 C139.39670598 139.48097392 145.46564121 150.2148741 151.77075195 161.29223633 C152.79296875 163.203125 152.79296875 163.203125 152.79296875 164.203125 C151.80296875 164.26371094 150.81296875 164.32429687 149.79296875 164.38671875 C143.09830237 164.80772966 136.43777972 165.25386629 129.79296875 166.203125 C128.31085847 161.93464739 126.91440026 157.74089313 125.91796875 153.328125 C123.32510694 142.68263547 117.4808996 129.69222606 107.98046875 123.765625 C104.72399884 122.03439928 101.42696336 120.6317504 97.98046875 119.328125 C85.95873502 114.75381751 74.35111178 106.71880225 66.79296875 96.203125 C68.17909761 92.16746857 70.09771837 89.4254614 72.79296875 86.140625 C77.16253321 80.30927135 78.10603026 75.31558044 78.79296875 68.203125 C79.09842507 66.86313048 79.42077397 65.52613669 79.79296875 64.203125 C76.12316671 61.29140711 76.12316671 61.29140711 71.79296875 60.203125 C70.22925639 64.18348373 68.79975421 67.9428428 67.98046875 72.140625 C66.82507906 77.19419903 63.82424217 81.08516866 60.79296875 85.203125 C56.32950099 81.12990579 53.27611089 76.63795157 50.10546875 71.515625 C49.32707642 70.27498291 49.32707642 70.27498291 48.53295898 69.00927734 C44.4933921 62.50379259 40.72877216 55.86443911 37.17895508 49.0793457 C33.67636694 42.52511726 29.97331539 38.42494344 23.04296875 35.390625 C18.59867074 33.32060356 15.5706867 31.22088146 12.16796875 27.703125 C9.21236461 24.84865326 9.21236461 24.84865326 5.33203125 24.03515625 C2.68699129 24.5356792 0.31434704 25.26254815 -2.20703125 26.203125 C-3.83112119 26.76824721 -5.45608287 27.33087228 -7.08203125 27.890625 C-8.13003906 28.29861328 -8.13003906 28.29861328 -9.19921875 28.71484375 C-11.73652382 29.33189265 -12.84459247 29.36062513 -15.20703125 28.203125 C-16.91015625 25.55078125 -16.91015625 25.55078125 -18.45703125 22.265625 C-19.23820312 20.64333984 -19.23820312 20.64333984 -20.03515625 18.98828125 C-21.20703125 16.203125 -21.20703125 16.203125 -21.20703125 14.203125 C-21.76132813 14.491875 -22.315625 14.780625 -22.88671875 15.078125 C-23.61117187 15.449375 -24.335625 15.820625 -25.08203125 16.203125 C-25.80132812 16.574375 -26.520625 16.945625 -27.26171875 17.328125 C-29.20703125 18.203125 -29.20703125 18.203125 -31.20703125 18.203125 C-30.77390625 19.04617187 -30.34078125 19.88921875 -29.89453125 20.7578125 C-29.33765625 21.85351562 -28.78078125 22.94921875 -28.20703125 24.078125 C-27.65015625 25.16867188 -27.09328125 26.25921875 -26.51953125 27.3828125 C-25.20703125 30.203125 -25.20703125 30.203125 -25.20703125 32.203125 C-28.28973819 33.18427127 -31.37330303 34.16269377 -34.45703125 35.140625 C-35.76607422 35.55731445 -35.76607422 35.55731445 -37.1015625 35.98242188 C-37.94589844 36.24990234 -38.79023438 36.51738281 -39.66015625 36.79296875 C-40.43520508 37.03909912 -41.21025391 37.28522949 -42.00878906 37.53881836 C-44.05659049 38.15766195 -46.13163859 38.68427684 -48.20703125 39.203125 C-47.21703125 44.153125 -47.21703125 44.153125 -46.20703125 49.203125 C-34.71245905 46.19397683 -23.2710808 43.00201729 -11.83203125 39.7890625 C-10.36938843 39.37865723 -10.36938843 39.37865723 -8.87719727 38.95996094 C-6.61637884 38.31915111 -4.36269368 37.65866616 -2.109375 36.9921875 C1.22976565 36.08437268 2.57248742 35.9463518 5.79296875 37.203125 C7.75352714 38.58678345 9.62210487 40.05477966 11.4921875 41.55859375 C13.97174192 43.33090684 16.45651677 44.44999704 19.23046875 45.703125 C29.10207685 50.92605338 33.50367953 62.45656162 38.15234375 72.0859375 C43.40542775 82.06679709 50.38317045 91.18248771 57.12573242 100.19262695 C59.54605267 103.43599043 61.7802863 106.68259135 63.79296875 110.203125 C52.19554374 113.99003929 40.28193409 112.79743818 28.79296875 109.203125 C28.46296875 112.503125 28.13296875 115.803125 27.79296875 119.203125 C40.11300011 123.19881085 50.92297282 123.19952206 63.2878418 119.62670898 C68.02279247 118.26773157 72.32916453 117.07517154 76.96875 119.19921875 C77.67386719 119.67488281 78.37898437 120.15054688 79.10546875 120.640625 C84.4916584 124.10552139 90.08871131 127.01326746 95.81567383 129.86694336 C106.85767339 135.53976904 111.663133 145.40895626 115.3515625 156.828125 C118.79296875 168.11196665 118.79296875 168.11196665 118.79296875 171.203125 C116.8515625 172.5 116.8515625 172.5 114.23046875 173.953125 C105.50663741 179.05736387 99.90561815 185.16935722 93.79296875 193.203125 C89.67308178 192.65660938 86.37464504 191.76720249 82.66796875 189.890625 C81.42660156 189.27767578 81.42660156 189.27767578 80.16015625 188.65234375 C75.21890047 185.62725151 73.1519952 182.29777229 70.91796875 177.015625 C63.58467926 160.68902278 51.78283447 151.32438553 36.79296875 142.203125 C36.12394531 141.7901416 35.45492187 141.3771582 34.765625 140.95166016 C26.83041214 136.15969021 20.73010775 132.91473937 11.30859375 135.2109375 C9.56835938 135.70207031 9.56835938 135.70207031 7.79296875 136.203125 C5.40710018 136.75378923 3.01568891 137.2738674 0.62255859 137.79199219 C-1.73469702 138.30686521 -4.08356167 138.85172686 -6.43359375 139.3984375 C-10.20703125 140.203125 -10.20703125 140.203125 -13.20703125 140.203125 C-20.66126446 123.868466 -21.04914655 108.97823555 -20.20703125 91.203125 C-23.83703125 91.203125 -27.46703125 91.203125 -31.20703125 91.203125 C-31.20703125 98.133125 -31.20703125 105.063125 -31.20703125 112.203125 C-42.42703125 112.203125 -53.64703125 112.203125 -65.20703125 112.203125 C-65.20703125 115.503125 -65.20703125 118.803125 -65.20703125 122.203125 C-53.65703125 122.203125 -42.10703125 122.203125 -30.20703125 122.203125 C-29.21703125 125.173125 -28.22703125 128.143125 -27.20703125 131.203125 C-26.11745795 134.01903521 -25.00871933 136.82502845 -23.87890625 139.625 C-23.04454608 142.82661459 -22.91051095 144.12798479 -24.20703125 147.203125 C-26.53569595 149.56524097 -29.11989259 151.52779217 -31.76953125 153.515625 C-32.48044922 154.06541016 -33.19136719 154.61519531 -33.92382812 155.18164062 C-35.67621765 156.53415603 -37.43702737 157.87379652 -39.20703125 159.203125 C-38.4833681 162.54743237 -37.38987629 164.54574843 -35.20703125 167.203125 C-31.02350284 165.43558425 -27.71773372 162.582266 -24.20703125 159.765625 C-22.97814858 158.78740354 -21.74898925 157.80952951 -20.51953125 156.83203125 C-19.70935547 156.1834314 -19.70935547 156.1834314 -18.8828125 155.52172852 C-18.32980469 155.08658936 -17.77679688 154.6514502 -17.20703125 154.203125 C-16.6042334 153.69152832 -16.00143555 153.17993164 -15.38037109 152.65283203 C-12.69611621 150.86232366 -10.24316407 150.18722823 -7.12109375 149.37890625 C-5.94289063 149.07275391 -4.7646875 148.76660156 -3.55078125 148.45117188 C-2.32359375 148.14244141 -1.09640625 147.83371094 0.16796875 147.515625 C1.38742187 147.19529297 2.606875 146.87496094 3.86328125 146.54492188 C18.14754929 142.88808688 18.14754929 142.88808688 23.484375 145.8125 C24.11923828 146.15539062 24.75410156 146.49828125 25.40820312 146.8515625 C26.05080078 147.21507812 26.69339844 147.57859375 27.35546875 147.953125 C28.00193359 148.30117187 28.64839844 148.64921875 29.31445312 149.0078125 C33.09919842 151.08691978 36.58774496 153.27474396 39.79296875 156.203125 C39.79296875 156.863125 39.79296875 157.523125 39.79296875 158.203125 C39.20128906 158.50605469 38.60960937 158.80898437 38 159.12109375 C36.81470703 159.74951172 36.81470703 159.74951172 35.60546875 160.390625 C34.82816406 160.79667969 34.05085937 161.20273438 33.25 161.62109375 C30.65879232 163.13405979 30.65879232 163.13405979 28.62109375 165.64453125 C24.73657936 169.1588364 20.65976553 170.36807355 15.73046875 171.953125 C14.83263672 172.25605469 13.93480469 172.55898438 13.00976562 172.87109375 C7.40469081 174.74639759 2.49518394 176.34394362 -3.45703125 176.265625 C-5.02453125 176.245 -6.59203125 176.224375 -8.20703125 176.203125 C-8.20703125 179.503125 -8.20703125 182.803125 -8.20703125 186.203125 C-5.49763703 185.91951358 -2.78980464 185.6265145 -0.08203125 185.328125 C0.67851562 185.24949219 1.4390625 185.17085937 2.22265625 185.08984375 C6.65256596 184.59338835 10.59508846 183.79912421 14.79296875 182.203125 C15.30177351 186.27356305 14.79414518 188.5352897 12.53125 191.8359375 C9.21008943 196.9486761 6.98333379 202.40398156 4.65625 208.01953125 C4.16318359 209.17388672 4.16318359 209.17388672 3.66015625 210.3515625 C3.22872314 211.39062744 3.22872314 211.39062744 2.78857422 212.45068359 C1.79296875 214.203125 1.79296875 214.203125 -1.20703125 216.203125 C-3.45683989 216.65179404 -5.72581806 217.00686648 -8 217.30859375 C-8.66485916 217.39691971 -9.32971832 217.48524567 -10.01472473 217.57624817 C-11.4221425 217.7607828 -12.83009955 217.94124374 -14.23852539 218.11791992 C-16.37126792 218.38768251 -18.50085054 218.67632991 -20.63085938 218.96679688 C-32.19744598 220.49283566 -39.88208646 219.76700983 -50.51953125 214.640625 C-52.28410248 213.80102035 -54.05093857 212.96615439 -55.8203125 212.13671875 C-56.59157471 211.76603271 -57.36283691 211.39534668 -58.1574707 211.01342773 C-60.30468976 210.01929333 -60.30468976 210.01929333 -63.20703125 210.203125 C-64.19703125 212.843125 -65.18703125 215.483125 -66.20703125 218.203125 C-59.60703125 221.173125 -53.00703125 224.143125 -46.20703125 227.203125 C-47.22269792 231.26579168 -48.24134873 232.85903144 -50.76953125 236.08203125 C-51.48367187 237.00306641 -52.1978125 237.92410156 -52.93359375 238.87304688 C-53.68382812 239.82759766 -54.4340625 240.78214844 -55.20703125 241.765625 C-56.68984712 243.65990954 -58.16918477 245.55692347 -59.64453125 247.45703125 C-60.30324219 248.29564697 -60.96195312 249.1342627 -61.640625 249.99829102 C-63.36973056 252.20514337 -63.36973056 252.20514337 -64.20703125 255.203125 C-61.89703125 256.853125 -59.58703125 258.503125 -57.20703125 260.203125 C-55.97160468 258.60377433 -54.74437491 256.99809487 -53.51953125 255.390625 C-53.11508789 254.8737915 -52.71064453 254.35695801 -52.29394531 253.82446289 C-49.70236133 250.44111403 -47.50214585 247.02087499 -45.453125 243.28125 C-37.56393529 229.40097191 -37.56393529 229.40097191 -30.44140625 227.42578125 C-24.14350076 226.33145375 -17.78234658 226.13964682 -11.40185547 226.25292969 C-1.91294104 226.46040669 -1.91294104 226.46040669 6.79296875 223.203125 C12.01064912 216.70607248 14.63629477 208.77058463 17.51318359 201.04785156 C19.04812741 197.63595433 21.04485057 195.43679798 23.60375977 192.76855469 C25.67992415 190.03557049 25.37908297 187.26852251 25.29296875 183.953125 C25.19921875 180.3125 25.19921875 180.3125 25.79296875 177.203125 C28.6484375 175.43359375 28.6484375 175.43359375 31.79296875 174.203125 C33.18515625 172.9965625 33.18515625 172.9965625 34.60546875 171.765625 C38.15767074 168.69016591 42.24398507 166.4214615 46.79296875 165.203125 C50.71152143 165.50823368 52.67302503 166.49262122 55.29296875 169.390625 C58.36857431 173.06812326 59.76920387 176.59446758 61.23046875 181.140625 C63.48504582 187.88990379 65.9438236 192.94920126 71.79296875 197.203125 C76.37533286 199.29453768 80.93638901 200.84573825 85.79296875 202.203125 C84.32635316 206.53084314 82.02150804 209.89108622 79.23046875 213.453125 C78.78719238 214.02160156 78.34391602 214.59007812 77.88720703 215.17578125 C67.62188853 228.12711224 58.02699694 235.24869725 41.73046875 238.015625 C22.90377059 241.43822135 9.12489605 249.40780185 -3.49609375 263.81640625 C-6.67572661 266.61576602 -9.70489854 267.68603586 -13.70703125 268.765625 C-15.12764864 269.17692975 -16.54822088 269.5883905 -17.96875 270 C-18.67692871 270.19916016 -19.38510742 270.39832031 -20.11474609 270.60351562 C-22.10107375 271.17275958 -24.07047635 271.77868922 -26.0390625 272.40625 C-34.8137654 275.203125 -34.8137654 275.203125 -38.20703125 275.203125 C-37.21703125 278.503125 -36.22703125 281.803125 -35.20703125 285.203125 C-27.8547856 283.80141364 -20.63231525 282.10557441 -13.39453125 280.203125 C-12.38455078 279.94273437 -11.37457031 279.68234375 -10.33398438 279.4140625 C-8.86928711 279.03121094 -8.86928711 279.03121094 -7.375 278.640625 C-6.50125732 278.41246094 -5.62751465 278.18429687 -4.72729492 277.94921875 C0.53367761 276.3917711 3.12709657 275.33482558 6.04296875 270.578125 C11.1152882 262.94759226 17.56219872 257.23452257 25.79296875 253.203125 C26.45296875 253.203125 27.11296875 253.203125 27.79296875 253.203125 C25.01886043 261.69189647 25.01886043 261.69189647 23.60546875 264.890625 C21.85628604 269.86906811 22.74460058 273.32326387 24.79296875 278.015625 C25.16421875 278.78519531 25.53546875 279.55476563 25.91796875 280.34765625 C27.17755544 284.45818246 27.99941291 287.98740454 26.79296875 292.203125 C24.10964762 295.1436104 20.9091514 297.11208556 17.54296875 299.203125 C10.40357701 303.71665479 6.43238149 307.06401924 3.79296875 315.203125 C3.21315214 316.72530255 2.62998861 318.24621081 2.04296875 319.765625 C1.63046875 320.9 1.21796875 322.034375 0.79296875 323.203125 C6.23796875 324.688125 6.23796875 324.688125 11.79296875 326.203125 C11.94765625 324.0065625 11.94765625 324.0065625 12.10546875 321.765625 C13.56936478 314.41499811 18.90553306 311.25925036 24.79296875 307.203125 C25.75460937 306.5740625 26.71625 305.945 27.70703125 305.296875 C28.60164062 304.7090625 29.49625 304.12125 30.41796875 303.515625 C31.23523438 303.01675781 32.0525 302.51789063 32.89453125 302.00390625 C36.07866459 298.98356577 35.70252489 295.49194995 35.99609375 291.30859375 C36.08985179 285.47215574 35.73771374 280.73932844 33.44921875 275.3359375 C31.4164479 268.72943225 33.95469912 263.80752197 36.73046875 257.890625 C37.10365234 257.06755859 37.47683594 256.24449219 37.86132812 255.39648438 C40.61247388 249.38361987 40.61247388 249.38361987 41.79296875 248.203125 C43.55993718 247.92712993 45.3319309 247.68315585 47.10546875 247.453125 C61.19155603 245.16120819 71.13482021 238.3565632 80.79296875 228.203125 C85.01732302 229.76770065 87.28355522 232.546551 89.79296875 236.203125 C89.90893985 240.72599784 87.07970479 244.44107538 84.79296875 248.203125 C84.13296875 248.203125 83.47296875 248.203125 82.79296875 248.203125 C82.51453125 248.78449219 82.23609375 249.36585938 81.94921875 249.96484375 C80.84908243 252.09449953 79.62326732 254.02423294 78.29296875 256.015625 C73.55815771 263.6191745 73.29327755 271.44772102 72.79296875 280.203125 C76.09296875 279.543125 79.39296875 278.883125 82.79296875 278.203125 C82.73109375 276.8625 82.66921875 275.521875 82.60546875 274.140625 C82.26565799 266.77805857 86.42607967 260.89368338 90.35546875 255.015625 C93.85610782 249.77311322 93.85610782 249.77311322 96.79296875 244.203125 C99.76360192 245.58234754 102.39015364 246.96049756 104.79296875 249.203125 C105.32906941 252.60736422 104.97304985 255.73656377 104.79296875 259.203125 C108.09296875 259.203125 111.39296875 259.203125 114.79296875 259.203125 C114.71344793 249.0684986 114.71344793 249.0684986 110.4921875 240.16015625 C107.69334394 237.66326262 104.8238456 235.41075016 101.79296875 233.203125 C100.32025611 231.97009881 98.86005682 230.72183226 97.41796875 229.453125 C96.79277344 228.90527344 96.16757812 228.35742188 95.5234375 227.79296875 C92.92060574 225.40165379 90.80516889 223.12406068 88.79296875 220.203125 C89.54174571 209.46285552 105.33866785 194.11555934 112.6640625 187.01953125 C124.17949102 177.19444086 136.88691787 175.00335841 151.546875 175.10546875 C152.72635963 175.10759117 152.72635963 175.10759117 153.92967224 175.10975647 C156.4049789 175.11528828 158.88019012 175.12782725 161.35546875 175.140625 C163.04882681 175.14564884 164.7421863 175.15021019 166.43554688 175.15429688 C170.55472345 175.16523522 174.67383 175.18245138 178.79296875 175.203125 C174.69910874 222.643738 156.52326736 263.98379723 120.16894531 295.61621094 C90.41726923 320.53438395 53.07600133 334.39268537 14.39111328 334.38842773 C12.19283255 334.39060043 9.9950666 334.4087802 7.796875 334.42773438 C-5.68604691 334.48342747 -18.80640773 333.40167745 -31.76953125 329.453125 C-33.10346924 329.05625488 -33.10346924 329.05625488 -34.46435547 328.65136719 C-61.85782643 320.32217115 -85.76343271 306.19803002 -106.20703125 286.203125 C-106.99207031 285.47996094 -107.77710938 284.75679688 -108.5859375 284.01171875 C-113.52855707 279.35203984 -117.70911998 274.20870096 -121.83203125 268.828125 C-122.37802979 268.12526367 -122.92402832 267.42240234 -123.48657227 266.69824219 C-123.98471436 266.03211914 -124.48285645 265.36599609 -124.99609375 264.6796875 C-125.44678223 264.08236816 -125.8974707 263.48504883 -126.36181641 262.86962891 C-126.6407373 262.31968262 -126.9196582 261.76973633 -127.20703125 261.203125 C-125.94023931 257.40274917 -124.49251613 256.7958273 -121.20703125 254.578125 C-100.0085157 239.48719209 -89.47599955 216.75474471 -83.20703125 192.203125 C-82.93890625 191.17058594 -82.67078125 190.13804687 -82.39453125 189.07421875 C-79.36309395 174.61173662 -80.15131773 157.56977808 -83.20703125 143.203125 C-83.35769043 142.48737305 -83.50834961 141.77162109 -83.66357422 141.03417969 C-86.24451423 129.15838463 -90.19278656 118.75109345 -96.20703125 108.203125 C-96.76261719 107.20796875 -97.31820312 106.2128125 -97.890625 105.1875 C-105.17415215 92.96095562 -115.41525505 83.06430914 -127.20703125 75.203125 C-120.60411096 55.78910394 -97.82501851 37.98416084 -81.20703125 27.203125 C-80.59263184 26.80303223 -79.97823242 26.40293945 -79.34521484 25.99072266 C-56.03338906 11.01364801 -27.96718253 0.17410717 0 0 Z " fill="#F5AE78" transform="translate(255.20703125,88.796875)"/>
<path d="M0 0 C0.66418945 0.1232666 1.32837891 0.2465332 2.01269531 0.37353516 C45.63339452 8.60614312 85.48440489 37.72269787 110.5 73.6875 C138.1708493 114.31495316 147.35879614 161.35146631 138.69335938 209.57128906 C135.71266047 224.31105504 130.63349067 238.52307663 124 252 C123.66242676 252.69287109 123.32485352 253.38574219 122.97705078 254.09960938 C117.87950114 264.44868499 112.01973381 273.85465373 105 283 C104.34 283.88429688 103.68 284.76859375 103 285.6796875 C87.51863279 305.57566333 68.23636513 321.28573772 46 333 C44.87335938 333.60328125 43.74671875 334.2065625 42.5859375 334.828125 C30.41454441 341.14735844 18.27415434 345.67567123 4.9375 348.75 C3.64585937 349.04801514 3.64585937 349.04801514 2.328125 349.35205078 C-10.77526031 352.20923513 -23.86357368 353.44344296 -37.25 353.4375 C-37.98100922 353.43823517 -38.71201843 353.43897034 -39.46517944 353.43972778 C-73.91288071 353.34972513 -110.22330082 342.89326061 -138 322 C-139.04929687 321.23171875 -140.09859375 320.4634375 -141.1796875 319.671875 C-163.84185532 302.85336876 -182.02425625 282.08937455 -195 257 C-195.31420898 256.39752441 -195.62841797 255.79504883 -195.95214844 255.17431641 C-216.98021394 214.27394354 -220.82890818 165.7570017 -207 122 C-206.76861328 121.25540527 -206.53722656 120.51081055 -206.29882812 119.74365234 C-202.98857727 109.34865727 -198.53087724 99.64127246 -193.5625 89.9375 C-193.03720703 88.90286621 -192.51191406 87.86823242 -191.97070312 86.80224609 C-188.3248341 79.87397658 -184.0630312 73.9564676 -179 68 C-178.1853125 66.98808594 -177.370625 65.97617188 -176.53125 64.93359375 C-169.50721922 56.30214054 -162.55281937 48.14482459 -154 41 C-153.15050781 40.25105469 -152.30101562 39.50210938 -151.42578125 38.73046875 C-138.63855702 27.65285977 -124.37953278 18.99204986 -109 12 C-108.32501465 11.69078613 -107.6500293 11.38157227 -106.95458984 11.06298828 C-95.93440226 6.08503814 -84.78066193 2.67058428 -73 0 C-71.98824707 -0.2477417 -71.98824707 -0.2477417 -70.95605469 -0.50048828 C-48.60060532 -5.87535639 -22.35602846 -4.55101257 0 0 Z M-84 13.6875 C-84.82193848 13.94096191 -85.64387695 14.19442383 -86.49072266 14.45556641 C-110.49778495 22.12365854 -132.43061272 35.05630117 -150.52783203 52.57910156 C-152.0138435 54.01336139 -153.51960083 55.42457776 -155.02734375 56.8359375 C-160.65938194 62.19337431 -165.65843429 67.83102691 -170.3125 74.0625 C-170.79920166 74.70606445 -171.28590332 75.34962891 -171.78735352 76.01269531 C-173.27812768 78.0201951 -173.27812768 78.0201951 -175 81 C-173.73320806 84.80037583 -172.28548488 85.4072977 -169 87.625 C-150.47023034 100.81608925 -138.56359398 121.15074015 -133 143 C-132.71382812 144.11503906 -132.42765625 145.23007813 -132.1328125 146.37890625 C-127.64681873 164.81420448 -127.04925169 184.6143581 -132 203 C-132.16628906 203.66660645 -132.33257812 204.33321289 -132.50390625 205.02001953 C-138.85341974 230.41219431 -152.71657132 252.68171178 -175 267 C-171.56988817 276.73875971 -162.93799152 284.57472479 -156 292 C-155.22914063 292.825 -154.45828125 293.65 -153.6640625 294.5 C-134.14610905 314.71276733 -107.91128483 329.31106148 -81 337 C-80.00226563 337.29390625 -79.00453125 337.5878125 -77.9765625 337.890625 C-64.88785376 341.46984294 -51.53506273 342.34024046 -38.03564453 342.26074219 C-35.86853313 342.24996785 -33.70224381 342.26075021 -31.53515625 342.2734375 C11.23321056 342.31793176 51.71715471 323.66144627 82 294 C82.80824219 293.24203125 83.61648438 292.4840625 84.44921875 291.703125 C94.43136116 282.15650364 102.13501685 270.92704143 109 259 C109.33241699 258.43087891 109.66483398 257.86175781 110.00732422 257.27539062 C121.92137824 236.72093841 128.94597537 213.32812015 130.55078125 189.6328125 C130.63626221 188.3864502 130.72174316 187.14008789 130.80981445 185.85595703 C130.87257568 184.91349121 130.93533691 183.97102539 131 183 C126.03784542 182.97509536 121.07572805 182.95704394 116.11352539 182.94506836 C114.42894862 182.94007057 112.74437612 182.93327011 111.05981445 182.92456055 C108.62450094 182.91229378 106.18924526 182.90672602 103.75390625 182.90234375 C103.01290176 182.89718246 102.27189728 182.89202118 101.50843811 182.88670349 C87.11388618 182.88519358 74.87921561 186.10599274 64 196 C63.07380859 196.78890625 63.07380859 196.78890625 62.12890625 197.59375 C53.69111366 205.31231287 47.31499905 215.52750142 41 225 C41.33237533 231.09780894 47.8699228 235.99549025 52 240 C54.82499511 242.52303169 57.77157368 244.88306853 60.75 247.22265625 C64.91679719 250.51413667 64.91679719 250.51413667 65.6328125 254.6953125 C65.80562629 256.17087636 65.96934231 257.64752783 66.125 259.125 C66.25455078 260.25615234 66.25455078 260.25615234 66.38671875 261.41015625 C66.59889261 263.27257127 66.80045763 265.13618931 67 267 C63.7 267 60.4 267 57 267 C57.185625 264.6796875 57.185625 264.6796875 57.375 262.3125 C57.42387344 258.50656138 57.42387344 258.50656138 55.734375 255.22265625 C52.73458307 252.70869499 52.73458307 252.70869499 49 252 C48.48050781 252.92941406 47.96101562 253.85882813 47.42578125 254.81640625 C41.0840697 266.08142879 41.0840697 266.08142879 38.0625 270.125 C35.23149995 274.07124249 34.86711936 276.96411645 34.9375 281.75 C34.9684375 283.85375 34.9684375 283.85375 35 286 C31.7 286.66 28.4 287.32 25 288 C26.57405366 266.22167541 26.57405366 266.22167541 33.66015625 259.40234375 C35.23027033 258.08224202 35.23027033 258.08224202 35 256 C35.66 256 36.32 256 37 256 C37.86916887 254.59248779 38.71985149 253.1735479 39.5625 251.75 C40.03816406 250.96109375 40.51382813 250.1721875 41.00390625 249.359375 C42.16632615 247.10802686 42.16632615 247.10802686 41.84375 244.9375 C40.84712559 242.64895506 39.60941558 241.09977894 37.9375 239.25 C37.11572266 238.32960938 37.11572266 238.32960938 36.27734375 237.390625 C35.85582031 236.93171875 35.43429687 236.4728125 35 236 C31.95966462 237.34248575 30.08422082 238.7854421 27.875 241.25 C20.86836971 248.40539102 9.93362447 254.85357405 -0.328125 255.04296875 C-1.00359375 255.02878906 -1.6790625 255.01460937 -2.375 255 C-6.12718981 255.61824409 -6.12718981 255.61824409 -7.71484375 258.4765625 C-9.30081771 261.60197817 -10.67031726 264.75838214 -12 268 C-12.35320312 268.67160156 -12.70640625 269.34320313 -13.0703125 270.03515625 C-15.57301831 274.80382543 -15.11027496 278.9190807 -14 284 C-13.4740625 285.3921875 -13.4740625 285.3921875 -12.9375 286.8125 C-11.46871084 291.80638313 -11.71055609 296.8303971 -12 302 C-11.97550781 302.96808594 -11.95101562 303.93617188 -11.92578125 304.93359375 C-13.70082787 310.00054502 -18.04224205 312.14767814 -22.375 315.0625 C-24.11791992 316.25306809 -25.85513736 317.45203658 -27.5859375 318.66015625 C-28.74681885 319.44338257 -28.74681885 319.44338257 -29.93115234 320.24243164 C-34.48721048 324.11298421 -35.43141661 328.20044945 -36 334 C-41.445 332.515 -41.445 332.515 -47 331 C-43.24182433 317.16854068 -37.93829626 310.79464179 -25.6015625 303.6015625 C-23.13333246 302.10047566 -21.26215948 300.91940438 -20.4453125 298.0546875 C-20.17753725 293.53401114 -21.24857924 290.1068699 -23.0625 286 C-25.65812125 280.02360516 -25.38022834 275.53648867 -23.02734375 269.5078125 C-22.32878027 267.94042635 -21.60183851 266.38520439 -20.83984375 264.84765625 C-19.86206569 263.03480686 -19.86206569 263.03480686 -20 261 C-29.11223766 263.6091727 -36.52326537 270.35500183 -42 278 C-42.4125 278.9075 -42.825 279.815 -43.25 280.75 C-46.20889811 284.55429757 -50.46185492 284.86952047 -55 286 C-56.43758486 286.40263249 -57.87368594 286.81058497 -59.30859375 287.22265625 C-67.15940166 289.47152113 -74.95063858 291.57188749 -83 293 C-83.99 289.7 -84.98 286.4 -86 283 C-84.1128125 282.690625 -84.1128125 282.690625 -82.1875 282.375 C-76.75952685 281.29252042 -71.5253805 279.71583391 -66.25 278.0625 C-65.43426514 277.80968262 -64.61853027 277.55686523 -63.77807617 277.29638672 C-56.82593914 275.0797221 -51.44629807 273.02149898 -46.6875 267.25 C-36.10301793 255.13332169 -22.77166868 248.37020472 -6.84790039 246.01318359 C11.01710876 243.32000671 22.29147333 233.63994017 32.984375 219.34765625 C36.52954136 215.06167426 36.52954136 215.06167426 38 210 C37.0821875 209.74347656 36.164375 209.48695313 35.21875 209.22265625 C25.85307252 206.30080099 19.95525956 202.96125683 14.92578125 194.109375 C13.64397458 191.33316934 12.92185535 188.61638083 12.3125 185.625 C10.4041284 180.35425939 7.38014165 176.50091614 3 173 C-3.45446105 172.29587698 -9.8035483 176.50385551 -14.80078125 180.40625 C-16.20205362 181.60237331 -17.60117912 182.80101068 -19 184 C-19.99 184.33 -20.98 184.66 -22 185 C-21.99097656 185.90621094 -21.98195313 186.81242188 -21.97265625 187.74609375 C-22.00230469 188.96425781 -22.03195312 190.18242187 -22.0625 191.4375 C-22.07990234 193.22994141 -22.07990234 193.22994141 -22.09765625 195.05859375 C-22.5524949 198.64384579 -24.01827734 200.50736353 -26.33203125 203.23828125 C-29.22487828 206.66601413 -30.64132529 209.40027503 -31.7890625 213.734375 C-33.71398589 220.42181491 -35.61791876 226.32136964 -41 231 C-51.02326865 235.46375938 -63.41269418 235.38306572 -74.21044922 235.79248047 C-79.77364114 235.82685726 -79.77364114 235.82685726 -84.41870117 238.36010742 C-84.78970947 238.93607666 -85.16071777 239.5120459 -85.54296875 240.10546875 C-85.97230713 240.75322266 -86.40164551 241.40097656 -86.84399414 242.06835938 C-87.28735107 242.76767578 -87.73070801 243.46699219 -88.1875 244.1875 C-89.14735448 245.64003917 -90.10831659 247.09184693 -91.0703125 248.54296875 C-91.5540332 249.28208496 -92.03775391 250.02120117 -92.53613281 250.78271484 C-94.81461071 254.23387166 -97.17644846 257.62266332 -99.5625 261 C-99.97975342 261.60481201 -100.39700684 262.20962402 -100.8269043 262.83276367 C-101.83382569 264.259079 -102.91062755 265.63561964 -104 267 C-107.28158484 267 -109.37881108 264.82343577 -112 263 C-108.36323087 256.1305472 -103.66146576 250.34311846 -98.78125 244.3203125 C-98.16765625 243.54945313 -97.5540625 242.77859375 -96.921875 241.984375 C-96.36081055 241.29053711 -95.79974609 240.59669922 -95.22167969 239.88183594 C-93.72774301 237.95455993 -93.72774301 237.95455993 -94 235 C-103.9 230.545 -103.9 230.545 -114 226 C-113.01 223.36 -112.02 220.72 -111 218 C-107.45328636 218.59255782 -104.53853243 219.54083167 -101.3046875 221.1015625 C-100.42296875 221.50890625 -99.54125 221.91625 -98.6328125 222.3359375 C-96.81044377 223.18775291 -94.99507689 224.05472989 -93.1875 224.9375 C-86.25654988 228.09158455 -81.42681189 228.17901898 -74 227 C-71.866888 226.78536389 -69.73269302 226.58127846 -67.59765625 226.38671875 C-65.4190838 226.15540062 -63.24069835 225.92231471 -61.0625 225.6875 C-59.95326172 225.58244141 -58.84402344 225.47738281 -57.70117188 225.36914062 C-56.10305664 225.1922168 -56.10305664 225.1922168 -54.47265625 225.01171875 C-53.51625244 224.91334717 -52.55984863 224.81497559 -51.57446289 224.71362305 C-48.32361404 223.81251056 -47.10218626 222.61521813 -45 220 C-43.60921571 217.5554448 -43.60921571 217.5554448 -42.4921875 214.8671875 C-42.06292969 213.89652344 -41.63367188 212.92585937 -41.19140625 211.92578125 C-40.75699219 210.91902344 -40.32257813 209.91226563 -39.875 208.875 C-39.00143174 206.87063201 -38.1240096 204.86793794 -37.2421875 202.8671875 C-36.8591748 201.98144043 -36.47616211 201.09569336 -36.08154297 200.18310547 C-35 198 -35 198 -33 196 C-32.83318891 192.91652174 -32.83318891 192.91652174 -33 190 C-33.65484375 190.20496094 -34.3096875 190.40992188 -34.984375 190.62109375 C-41.99972911 192.69201043 -48.70286355 193.63068594 -56 194 C-56 190.7 -56 187.4 -56 184 C-54.02 184.1546875 -54.02 184.1546875 -52 184.3125 C-39.66773826 184.33004234 -24.64697226 178.70646389 -15.640625 170.39453125 C-13.32480489 168.42608416 -10.7684666 167.21542436 -8 166 C-9.35339446 162.754502 -10.5399261 161.34315 -13.625 159.67578125 C-14.33140625 159.28712891 -15.0378125 158.89847656 -15.765625 158.49804688 C-16.50296875 158.10681641 -17.2403125 157.71558594 -18 157.3125 C-18.73734375 156.90966797 -19.4746875 156.50683594 -20.234375 156.09179688 C-31.81477944 149.7838576 -42.94749203 153.52877446 -55.32421875 156.98828125 C-63.38523375 159.56293761 -68.94623409 164.27931612 -75 170 C-80.60504202 175 -80.60504202 175 -83 175 C-85.1875 172.75 -85.1875 172.75 -87 170 C-86.77884151 167.44982462 -86.34988268 166.33553579 -84.49365234 164.55541992 C-83.86410645 164.11818604 -83.23456055 163.68095215 -82.5859375 163.23046875 C-81.90789062 162.73353516 -81.22984375 162.23660156 -80.53125 161.72460938 C-79.09406323 160.70009308 -77.64866176 159.68700349 -76.1953125 158.68554688 C-74.22782072 157.22682444 -72.55436581 155.89427531 -71 154 C-70.69602659 150.5391872 -70.69602659 150.5391872 -72 147 C-72.2791626 145.99151001 -72.2791626 145.99151001 -72.56396484 144.96264648 C-73.16164597 142.83232962 -73.82133486 140.73080097 -74.5 138.625 C-74.72558594 137.90183594 -74.95117188 137.17867187 -75.18359375 136.43359375 C-76.08433707 132.94017443 -76.08433707 132.94017443 -78 130 C-80.59359322 129.91148471 -83.16039691 129.88474055 -85.75390625 129.90234375 C-86.52935287 129.9037587 -87.3047995 129.90517365 -88.10374451 129.90663147 C-90.59003494 129.91224655 -93.0762366 129.92480154 -95.5625 129.9375 C-97.24413933 129.94251306 -98.92578006 129.9470763 -100.60742188 129.95117188 C-104.73831566 129.96222087 -108.86914276 129.97949555 -113 130 C-113 126.7 -113 123.4 -113 120 C-101.78 120 -90.56 120 -79 120 C-79 113.07 -79 106.14 -79 99 C-75.37 99 -71.74 99 -68 99 C-68.03665771 99.77375977 -68.07331543 100.54751953 -68.11108398 101.34472656 C-68.80880401 118.37767477 -68.12529718 132.38614725 -61 148 C-55.35751623 147.14405436 -49.75364578 146.18833461 -44.18359375 144.94140625 C-43.34868408 144.75610352 -42.51377441 144.57080078 -41.65356445 144.37988281 C-39.99240674 144.00713679 -38.33326987 143.62524465 -36.67651367 143.23339844 C-28.07165556 141.31110292 -22.87567354 143.22683127 -15.375 147.5 C-14.1840271 148.17168213 -14.1840271 148.17168213 -12.96899414 148.85693359 C-6.2095297 152.74158884 -0.02944757 157.04305506 6 162 C6.83144531 162.66773438 7.66289062 163.33546875 8.51953125 164.0234375 C15.94614288 170.25538689 20.14309262 176.91000815 24 185.75 C27.64551904 193.84173348 31.81474457 196.69066502 39.75390625 200.3984375 C42.63283227 201.16948899 44.19506373 201.0138862 47 200 C48.98015952 197.99155653 48.98015952 197.99155653 50.6875 195.4375 C56.0851102 188.3155115 62.70700155 182.49178882 71 179 C66.73594252 158.21810321 66.73594252 158.21810321 54.95703125 141.3359375 C52.36774093 139.71383603 49.74344655 138.34722822 47 137 C45.64544758 136.32238515 44.29130929 135.64394207 42.9375 134.96484375 C40.80851653 133.89818106 38.67787776 132.8380438 36.53369141 131.80224609 C33.78382356 130.46467268 31.26310931 129.21762759 28.8984375 127.26171875 C26.13212389 125.42320168 24.2770418 125.6818406 21 126 C18.47075236 126.61581682 15.99715112 127.27845138 13.5 128 C1.78519368 131.12421943 -8.44604618 130.74722826 -20 127 C-19.67 123.7 -19.34 120.4 -19 117 C-18.30777344 117.2165625 -17.61554688 117.433125 -16.90234375 117.65625 C-6.04529008 120.7460044 5.15567936 121.54100266 16 118 C13.28803558 113.84340562 10.42818854 109.8298942 7.48339844 105.83544922 C0.13288247 95.83642764 -6.32719213 85.58201408 -12.375 74.7578125 C-12.77235352 74.04705566 -13.16970703 73.33629883 -13.57910156 72.60400391 C-14.33122998 71.25249375 -15.07841154 69.8982121 -15.81933594 68.54052734 C-19.7584631 61.40386457 -22.83288426 56.0116007 -30.4375 52.375 C-37.43219291 48.89340736 -37.43219291 48.89340736 -40.4375 46 C-42.82850695 43.65854516 -42.82850695 43.65854516 -45.78295898 44.28198242 C-51.24364121 45.5007626 -56.6489059 46.90064413 -62.0625 48.3125 C-63.21427734 48.60833984 -64.36605469 48.90417969 -65.55273438 49.20898438 C-72.48506609 51.00913557 -79.33443607 52.97958256 -86.15795898 55.15698242 C-89 56 -89 56 -94 57 C-94.66 53.7 -95.32 50.4 -96 47 C-94.50726563 46.57847656 -93.01453125 46.15695313 -91.4765625 45.72265625 C-89.52601208 45.16937512 -87.57549286 44.61598401 -85.625 44.0625 C-84.14773437 43.64581055 -84.14773437 43.64581055 -82.640625 43.22070312 C-81.22910156 42.81948242 -81.22910156 42.81948242 -79.7890625 42.41015625 C-78.48509521 42.04096069 -78.48509521 42.04096069 -77.15478516 41.66430664 C-74.97999742 41.05827253 -74.97999742 41.05827253 -73 40 C-74.49170266 35.0276578 -76.60457417 30.58154261 -79 26 C-78.0925 25.71125 -77.185 25.4225 -76.25 25.125 C-73.67797092 24.23468224 -71.38653234 23.28505587 -69 22 C-68.773125 22.804375 -68.54625 23.60875 -68.3125 24.4375 C-66.66368412 28.91285739 -64.39455588 32.88721318 -62 37 C-56.11366878 35.95545271 -50.58688926 34.66020966 -45.0078125 32.48828125 C-42.50214685 31.87892676 -41.39000863 32.01855159 -39 33 C-37.28686175 34.33838926 -35.62524274 35.74364596 -34 37.1875 C-30.091396 40.54588883 -26.89204876 42.53014755 -22.0625 44.25 C-13.17952702 48.36397714 -9.72924639 58.03851507 -5.43164062 66.31298828 C-3.33147735 70.25473401 -1.01159349 74.03917582 1.375 77.8125 C1.98698242 78.78582275 1.98698242 78.78582275 2.61132812 79.77880859 C5.52459507 84.36348446 8.62652269 88.7387655 12 93 C18.54961304 86.98143667 20.39304714 81.07521559 22.3515625 72.609375 C23 70 23 70 24 68 C26.9719385 69.12451727 29.33440687 70.22293791 32 72 C30.73441981 84.49354805 27.01714111 92.37341406 19 102 C25.51215213 116.24332781 41.31573073 123.481845 55.0390625 129.28515625 C67.26509108 134.73074466 71.86907316 144.55788152 77.0390625 156.375 C78.16201047 159.44256518 78.86752274 162.4964264 79.5625 165.6875 C80.43044309 169.96753928 80.43044309 169.96753928 82 174 C89.59 173.34 97.18 172.68 105 172 C103.824375 169.64875 102.64875 167.2975 101.4375 164.875 C101.04731689 164.0924585 100.65713379 163.30991699 100.25512695 162.50366211 C98.5151524 159.01494003 96.76521114 155.53246613 94.98046875 152.06640625 C94.51072632 151.14722412 94.51072632 151.14722412 94.03149414 150.20947266 C93.173414 148.53213745 92.30953453 146.85777271 91.4453125 145.18359375 C89.90904451 141.7996521 88.93254607 138.58984967 88 135 C92.95 134.505 92.95 134.505 98 134 C98.32685791 134.69971924 98.65371582 135.39943848 98.99047852 136.12036133 C100.50676081 139.35475918 102.03455328 142.5835971 103.5625 145.8125 C104.07619141 146.91271484 104.58988281 148.01292969 105.11914062 149.14648438 C110.80731982 161.39397809 110.80731982 161.39397809 119 172 C121.89883083 172.24339551 121.89883083 172.24339551 125.125 172.125 C126.22070312 172.10695312 127.31640625 172.08890625 128.4453125 172.0703125 C129.28835938 172.04710937 130.13140625 172.02390625 131 172 C133.87258493 134.1776317 114.24343081 94.39281545 90.66015625 66.203125 C88.4942628 63.74348469 86.27118802 61.36264526 84 59 C83.55720703 58.53142578 83.11441406 58.06285156 82.65820312 57.58007812 C55.82575826 29.27534547 16.06423433 9.30210969 -23.30395508 7.79321289 C-27.1613696 7.69228521 -31.01690134 7.67360125 -34.87548828 7.68432617 C-37.23387316 7.68747844 -39.59098821 7.66394739 -41.94921875 7.63867188 C-56.26246711 7.57829216 -70.30884093 9.38662809 -84 13.6875 Z " fill="#040403" transform="translate(303,81)"/>
<path d="M0 0 C1.09393066 0.00031723 1.09393066 0.00031723 2.20996094 0.00064087 C60.31587639 0.16686034 112.67568649 23.63715076 153.47827148 64.61132812 C159.50801796 70.80306779 164.84646528 77.40020124 169.9375 84.375 C170.71609375 85.43203125 171.4946875 86.4890625 172.296875 87.578125 C203.45929898 131.20551857 217.30318287 186.24357246 208.9375 239.375 C201.90959951 280.31914312 184.21816148 318.54778495 156.0078125 349.1171875 C154.15321134 351.13975254 152.38714839 353.20983984 150.625 355.3125 C138.18915757 369.48027483 122.28940048 381.14728406 105.9375 390.375 C105.22094238 390.78572754 104.50438477 391.19645508 103.76611328 391.61962891 C83.9295039 402.88024509 62.49864717 411.59338791 39.9375 415.375 C39.15826172 415.52018066 38.37902344 415.66536133 37.57617188 415.81494141 C11.88136051 420.55006994 -14.55929277 419.70212691 -40.0625 414.375 C-41.24320068 414.14272705 -41.24320068 414.14272705 -42.44775391 413.90576172 C-59.58142287 410.51507509 -75.89089092 404.58078609 -91.26904297 396.33056641 C-92.95987752 395.42967797 -94.66894921 394.56326065 -96.37890625 393.69921875 C-125.9352767 378.50398045 -154.22599141 353.50154588 -171.25390625 324.73828125 C-175.62828931 317.37820817 -180.15910217 312.17242824 -186.82592773 306.77050781 C-205.85300826 291.26028103 -216.42288114 267.79987816 -222.0625 244.375 C-222.45634888 242.7818396 -222.45634888 242.7818396 -222.8581543 241.15649414 C-224.96858423 231.80780764 -225.50015129 222.88289516 -225.39868164 213.31420898 C-225.3750533 210.94284905 -225.37815583 208.57262049 -225.38476562 206.20117188 C-225.36175953 192.79712573 -224.55223111 179.43094025 -220.5 166.5625 C-220.24387939 165.73484131 -219.98775879 164.90718262 -219.72387695 164.05444336 C-212.75554608 142.49610592 -200.90384537 121.83054352 -182.5 108.125 C-176.50899028 103.43786579 -173.27005749 97.75686238 -169.46484375 91.3125 C-166.22148943 85.86376933 -162.24109458 81.12815134 -158.0625 76.375 C-157.4025 75.60542969 -156.7425 74.83585937 -156.0625 74.04296875 C-139.05285555 54.61718162 -120.4191315 39.23850203 -98.0625 26.375 C-97.4422998 26.01067871 -96.82209961 25.64635742 -96.18310547 25.27099609 C-67.54712968 8.53854082 -33.05171934 -0.08940312 0 0 Z M-142.0625 75.375 C-145.24720037 78.91246718 -148.17312894 82.59456377 -151.0625 86.375 C-151.87203125 87.39207031 -152.6815625 88.40914063 -153.515625 89.45703125 C-157.45854163 94.43975457 -161.14313329 99.40962934 -164.40649414 104.86743164 C-168.23354164 111.23729972 -172.17687288 115.47203007 -178.43359375 119.60546875 C-198.27568027 132.96128627 -209.31487267 161.03147886 -214.0625 183.375 C-214.26875 184.27347656 -214.475 185.17195312 -214.6875 186.09765625 C-217.74972141 201.89786813 -217.38861465 219.65540082 -214.0625 235.375 C-213.89105469 236.49648438 -213.71960938 237.61796875 -213.54296875 238.7734375 C-208.98737741 266.34211285 -194.23988545 289.82663863 -172.1171875 306.609375 C-168.6764309 309.4828384 -166.70324688 312.83111089 -164.5 316.6875 C-159.15093849 325.61257314 -152.85831996 333.51509501 -146.0625 341.375 C-145.30815674 342.25115967 -145.30815674 342.25115967 -144.53857422 343.14501953 C-112.28755406 380.24805723 -64.00225525 404.48587314 -15.0625 408.375 C-9.94487571 408.64313329 -4.82880216 408.66526906 0.29467773 408.63574219 C2.50337023 408.62498358 4.71125298 408.6357454 6.91992188 408.6484375 C57.24982668 408.69930887 104.45835808 387.25654833 140.49316406 352.75634766 C141.77551618 351.52991961 143.07047661 350.31670513 144.3671875 349.10546875 C175.77055114 318.98729614 192.73543711 276.70153737 198.9375 234.375 C199.21400391 232.58449219 199.21400391 232.58449219 199.49609375 230.7578125 C205.45540808 180.86304156 189.36483501 128.80432957 158.50097656 89.54785156 C155.40484786 85.74162099 152.18455998 82.05269141 148.9375 78.375 C147.8546875 77.10849609 147.8546875 77.10849609 146.75 75.81640625 C142.4749998 70.86508766 137.94235762 66.57399072 132.9375 62.375 C131.99132812 61.54097656 131.04515625 60.70695312 130.0703125 59.84765625 C57.63587143 -3.7036359 -52.72917513 -1.12435868 -142.0625 75.375 Z " fill="#040405" transform="translate(264.0625,45.625)"/>
<path d="M0 0 C1.17948463 0.00212242 1.17948463 0.00212242 2.38279724 0.00428772 C4.8581039 0.00981953 7.33331512 0.0223585 9.80859375 0.03515625 C11.50195181 0.04018009 13.1953113 0.04474144 14.88867188 0.04882812 C19.00784845 0.05976647 23.126955 0.07698263 27.24609375 0.09765625 C23.15223374 47.53826925 4.97639236 88.87832848 -31.37792969 120.51074219 C-61.12960577 145.4289152 -98.47087367 159.28721662 -137.15576172 159.28295898 C-139.35404245 159.28513168 -141.5518084 159.30331145 -143.75 159.32226562 C-157.2341973 159.37796399 -170.35149326 158.29361172 -183.31640625 154.34765625 C-184.19482178 154.08815186 -185.0732373 153.82864746 -185.97827148 153.5612793 C-206.36287657 147.39486667 -206.36287657 147.39486667 -212.75390625 142.09765625 C-209.23830301 142.64427214 -205.76983972 143.30491083 -202.296875 144.0703125 C-188.81403022 146.88456853 -175.99354093 147.44352812 -162.28979492 146.94946289 C-153.98521274 146.70948826 -147.33018559 147.51919221 -139.75390625 151.09765625 C-139.71370361 150.42250977 -139.67350098 149.74736328 -139.63208008 149.05175781 C-139.28557617 144.70559611 -138.51754321 141.92682423 -135.5234375 138.67578125 C-131.77204036 135.60693733 -127.8946917 132.84390732 -123.83984375 130.19140625 C-122.94523437 129.60359375 -122.050625 129.01578125 -121.12890625 128.41015625 C-120.31164062 127.91128906 -119.494375 127.41242188 -118.65234375 126.8984375 C-115.46821041 123.87809702 -115.84435011 120.3864812 -115.55078125 116.203125 C-115.45702321 110.36668699 -115.80916126 105.63385969 -118.09765625 100.23046875 C-120.1304271 93.6239635 -117.59217588 88.70205322 -114.81640625 82.78515625 C-114.44322266 81.96208984 -114.07003906 81.13902344 -113.68554688 80.29101562 C-110.93440112 74.27815112 -110.93440112 74.27815112 -109.75390625 73.09765625 C-107.98693782 72.82166118 -106.2149441 72.5776871 -104.44140625 72.34765625 C-90.35531897 70.05573944 -80.41205479 63.25109445 -70.75390625 53.09765625 C-66.52955198 54.6622319 -64.26331978 57.44108225 -61.75390625 61.09765625 C-61.63793515 65.62052909 -64.46717021 69.33560663 -66.75390625 73.09765625 C-67.41390625 73.09765625 -68.07390625 73.09765625 -68.75390625 73.09765625 C-69.03234375 73.67902344 -69.31078125 74.26039063 -69.59765625 74.859375 C-70.69779257 76.98903078 -71.92360768 78.91876419 -73.25390625 80.91015625 C-77.98871729 88.51370575 -78.25359745 96.34225227 -78.75390625 105.09765625 C-75.45390625 104.43765625 -72.15390625 103.77765625 -68.75390625 103.09765625 C-68.81578125 101.75703125 -68.87765625 100.41640625 -68.94140625 99.03515625 C-69.28121701 91.67258982 -65.12079533 85.78821463 -61.19140625 79.91015625 C-57.69076718 74.66764447 -57.69076718 74.66764447 -54.75390625 69.09765625 C-51.78327308 70.47687879 -49.15672136 71.85502881 -46.75390625 74.09765625 C-46.21780559 77.50189547 -46.57382515 80.63109502 -46.75390625 84.09765625 C-43.45390625 84.09765625 -40.15390625 84.09765625 -36.75390625 84.09765625 C-36.83342707 73.96302985 -36.83342707 73.96302985 -41.0546875 65.0546875 C-43.85353106 62.55779387 -46.7230294 60.30528141 -49.75390625 58.09765625 C-51.22661889 56.86463006 -52.68681818 55.61636351 -54.12890625 54.34765625 C-54.75410156 53.79980469 -55.37929688 53.25195312 -56.0234375 52.6875 C-58.62626926 50.29618504 -60.74170611 48.01859193 -62.75390625 45.09765625 C-62.00512929 34.35738677 -46.20820715 19.01009059 -38.8828125 11.9140625 C-27.36738398 2.08897211 -14.65995713 -0.10211034 0 0 Z " fill="#D09664" transform="translate(406.75390625,263.90234375)"/>
<path d="M0 0 C21.88809298 13.99646762 34.51518565 35.15496493 40.45703125 60.21875 C43.99890851 78.36131552 43.6702674 98.3463972 38 116 C37.77505859 116.70044434 37.55011719 117.40088867 37.31835938 118.12255859 C32.94434408 131.31991465 26.96563417 142.35448912 18 153 C17.2575 154.010625 16.515 155.02125 15.75 156.0625 C11.7626181 160.8834809 6.05644036 164.37097582 1 168 C-2.81069179 164.69740045 -4.8071164 160.88553261 -6.875 156.375 C-7.22014648 155.62718262 -7.56529297 154.87936523 -7.92089844 154.10888672 C-16.4192504 135.24506106 -21.95908121 114.54340984 -22.2734375 93.78515625 C-22.28601089 93.02056595 -22.29858429 92.25597565 -22.3115387 91.46821594 C-22.55011942 73.45167019 -22.02172478 56.45317144 -17 39 C-16.74831055 38.11763672 -16.49662109 37.23527344 -16.23730469 36.32617188 C-12.40863797 23.39057589 -6.59471549 11.729836 0 0 Z " fill="#5298C0" transform="translate(122,172)"/>
<path d="M0 0 C1.13792747 -0.01065742 1.13792747 -0.01065742 2.29884338 -0.02153015 C34.41067642 -0.25399117 34.41067642 -0.25399117 47.79296875 3.203125 C48.67484863 3.42887207 49.55672852 3.65461914 50.46533203 3.88720703 C95.7590052 15.86921063 133.5212276 43.84037801 157.203125 84.48925781 C169.37140064 106.247952 179.13904565 133.40228065 178.85546875 158.640625 C178.84644531 159.69121094 178.83742188 160.74179688 178.828125 161.82421875 C178.81072266 163.00177734 178.81072266 163.00177734 178.79296875 164.203125 C176.94561436 164.44883223 175.08854854 164.62199429 173.23046875 164.765625 C172.19792969 164.87003906 171.16539062 164.97445312 170.1015625 165.08203125 C164.74243807 163.65841496 162.65360535 159.75518418 159.79296875 155.203125 C157.52592186 151.19348976 155.48051746 147.10137418 153.48046875 142.953125 C152.95646484 141.8909375 152.43246094 140.82875 151.89257812 139.734375 C149.70356076 135.2722551 147.5927094 130.83836043 145.79296875 126.203125 C140.84296875 126.698125 140.84296875 126.698125 135.79296875 127.203125 C139.39670598 139.48097392 145.46564121 150.2148741 151.77075195 161.29223633 C152.79296875 163.203125 152.79296875 163.203125 152.79296875 164.203125 C147.18296875 164.533125 141.57296875 164.863125 135.79296875 165.203125 C135.71046875 163.016875 135.62796875 160.830625 135.54296875 158.578125 C133.74058309 126.71476066 122.78587827 96.18688988 102.79296875 71.203125 C102.32246094 70.61450684 101.85195313 70.02588867 101.3671875 69.41943359 C76.1312387 38.23239528 39.81667588 17.80230045 -0.18212891 13.43676758 C-1.99777705 13.22726972 -3.80484241 12.94630116 -5.609375 12.65625 C-21.58651902 10.64392784 -37.17306866 12.57114909 -52.84375 15.74560547 C-55.95395698 16.34772612 -59.06620911 16.79326497 -62.20703125 17.203125 C-58.04545121 13.88440403 -53.71012008 12.20505447 -48.76953125 10.328125 C-47.84954346 9.97806396 -46.92955566 9.62800293 -45.98168945 9.26733398 C-31.21259238 3.82278865 -15.78626622 0.09827597 0 0 Z " fill="#CF9564" transform="translate(255.20703125,88.796875)"/>
<path d="M0 0 C-0.91942383 0.42128174 -0.91942383 0.42128174 -1.85742188 0.85107422 C-42.50255654 19.58522847 -75.48455523 46.47302716 -99 84.875 C-101.82041663 89.18529774 -105.42073091 91.95386437 -109.48828125 95.0546875 C-132.22089199 112.66097078 -142.55916255 142.16452359 -146.30859375 169.625 C-150.24507036 202.7658095 -144.0017671 238.44008198 -123.84375 265.69921875 C-117.5585086 273.54245431 -110.78916261 280.89664155 -102.55859375 286.73046875 C-99.32458733 289.59910651 -97.47559915 292.73221978 -95.3125 296.4375 C-88.35584298 307.93543548 -80.27035464 318.25352443 -71 328 C-70.20964355 328.83917969 -70.20964355 328.83917969 -69.40332031 329.6953125 C-50.97787736 349.14496593 -29.68470775 361.85365151 -6 374 C-6 374.66 -6 375.32 -6 376 C-11.69536609 375.46185517 -16.19914794 373.88793701 -21.375 371.5 C-22.54748291 370.96596558 -22.54748291 370.96596558 -23.74365234 370.42114258 C-42.6992993 361.67516793 -59.83214214 351.26049671 -75.46630859 337.36181641 C-76.9841462 336.01407712 -78.51670915 334.68466958 -80.05078125 333.35546875 C-94.50932224 320.65868275 -106.08540988 305.29413559 -116.125 288.9375 C-118.86650463 284.7530982 -122.41203681 282.08399885 -126.359375 279.0703125 C-147.79186925 262.26672973 -159.85188817 234.40329444 -163.28320312 207.8046875 C-165.07209015 191.18353247 -165.11176906 174.25212168 -161 158 C-160.7215625 156.76636719 -160.443125 155.53273437 -160.15625 154.26171875 C-154.63350759 131.33757678 -142.75805398 108.18959956 -122.875 94.6875 C-117.19849833 90.65283993 -114.28810229 86.25988648 -110.85449219 80.36279297 C-104.51444471 69.54254568 -96.11642189 60.17517573 -87.6875 50.9375 C-87.23262207 50.43774658 -86.77774414 49.93799316 -86.30908203 49.4230957 C-74.31819637 36.56464686 -59.27631122 25.59936171 -44 17 C-43.31776367 16.61247559 -42.63552734 16.22495117 -41.93261719 15.82568359 C-32.73696817 10.64580482 -23.40650756 6.13123714 -13.5625 2.3125 C-12.66853516 1.96123047 -11.77457031 1.60996094 -10.85351562 1.24804688 C-10.01626953 0.93544922 -9.17902344 0.62285156 -8.31640625 0.30078125 C-7.57849854 0.02403564 -6.84059082 -0.25270996 -6.08032227 -0.5378418 C-3.70449067 -1.06564947 -2.28419095 -0.76741338 0 0 Z " fill="#A8D7E1" transform="translate(212,68)"/>
<path d="M0 0 C4.22435427 1.56457565 6.49058647 4.343426 9 8 C9.1159711 12.52287284 6.28673604 16.23795038 4 20 C3.34 20 2.68 20 2 20 C1.7215625 20.58136719 1.443125 21.16273438 1.15625 21.76171875 C0.05611368 23.89137453 -1.16970143 25.82110794 -2.5 27.8125 C-7.23481104 35.4160495 -7.4996912 43.24459602 -8 52 C-4.7 51.34 -1.4 50.68 2 50 C1.938125 48.659375 1.87625 47.31875 1.8125 45.9375 C1.47268924 38.57493357 5.63311092 32.69055838 9.5625 26.8125 C13.06313907 21.56998822 13.06313907 21.56998822 16 16 C18.9717939 17.37976145 21.56138286 18.79785482 24 21 C25.32357939 24.68668232 25.45512312 28.12360655 25 32 C23.26071895 35.56946529 20.73261622 38.15000336 18 41 C17.18789063 41.93714844 16.37578125 42.87429688 15.5390625 43.83984375 C-4.61840309 67.0265808 -33.05216658 84.03318823 -63 91 C-63.99 90.67 -64.98 90.34 -66 90 C-65.64287505 87.28393195 -65.23352346 86.20845002 -63.15820312 84.35595703 C-61.98161133 83.56487549 -61.98161133 83.56487549 -60.78125 82.7578125 C-59.93175781 82.16613281 -59.08226562 81.57445312 -58.20703125 80.96484375 C-56.40596787 79.7407444 -54.60127897 78.52196208 -52.79296875 77.30859375 C-47.77370939 73.98578485 -47.77370939 73.98578485 -44.921875 68.91796875 C-44.94765625 67.95503906 -44.9734375 66.99210937 -45 66 C-44.93296875 65.04480469 -44.8659375 64.08960938 -44.796875 63.10546875 C-44.70311696 57.26903074 -45.05525501 52.53620344 -47.34375 47.1328125 C-49.37652085 40.52630725 -46.83826963 35.60439697 -44.0625 29.6875 C-43.68931641 28.86443359 -43.31613281 28.04136719 -42.93164062 27.19335938 C-40.18049487 21.18049487 -40.18049487 21.18049487 -39 20 C-37.23303157 19.72400493 -35.46103785 19.48003085 -33.6875 19.25 C-19.60141272 16.95808319 -9.65814854 10.1534382 0 0 Z " fill="#F4AE77" transform="translate(336,317)"/>
<path d="M0 0 C3.98574103 0.55800374 5.35454357 1.52123007 8.125 4.4375 C17.55883994 19.48594364 16.73752282 41.2580754 13.953125 58.203125 C12.18589061 65.10534235 9.4434841 72.5941701 3.125 76.4375 C0.25 77.0625 0.25 77.0625 -2.875 76.4375 C-9.7104996 71.46315128 -11.89470884 62.55461088 -13.40991211 54.64526367 C-14.22054005 49.05427128 -14.10137545 43.45286244 -14.125 37.8125 C-14.145625 36.60464844 -14.16625 35.39679688 -14.1875 34.15234375 C-14.23964866 22.04081857 -12.56732932 11.08587637 -4.3984375 1.75 C-2.875 0.4375 -2.875 0.4375 0 0 Z " fill="#ABDAE4" transform="translate(115.875,217.5625)"/>
<path d="M0 0 C-1.02099018 24.82062329 -8.14931722 48.68089492 -21 70 C-21.22429687 69.43925781 -21.44859375 68.87851562 -21.6796875 68.30078125 C-23.39312343 65.31494172 -25.54816061 63.46645963 -28.125 61.1875 C-29.10984375 60.30964844 -30.0946875 59.43179688 -31.109375 58.52734375 C-33.51931587 56.42027383 -35.94421226 54.33286964 -38.375 52.25 C-41.65851381 49.37269409 -44.51558133 46.60641419 -47 43 C-46.25101887 32.25680189 -30.45734448 16.9252027 -23.13671875 9.8203125 C-16.36320254 4.04982154 -9.00649482 0 0 0 Z " fill="#F4AE78" transform="translate(391,266)"/>
<path d="M0 0 C0.66 0 1.32 0 2 0 C1.67 9.24 1.34 18.48 1 28 C0.34 28 -0.32 28 -1 28 C-1.02886338 23.52084672 -1.04675187 19.04171709 -1.0625 14.5625 C-1.07087891 13.28310547 -1.07925781 12.00371094 -1.08789062 10.68554688 C-1.09111328 9.47060547 -1.09433594 8.25566406 -1.09765625 7.00390625 C-1.10289307 5.87799072 -1.10812988 4.7520752 -1.11352539 3.59204102 C-1 1 -1 1 0 0 Z " fill="#63A5C8" transform="translate(101,239)"/>
<path d="M0 0 C-3.96 1.65 -7.92 3.3 -12 5 C-12.33 4.01 -12.66 3.02 -13 2 C-11.5882217 1.46605821 -10.17029756 0.94834896 -8.75 0.4375 C-7.96109375 0.14746094 -7.1721875 -0.14257812 -6.359375 -0.44140625 C-4 -1 -4 -1 0 0 Z " fill="#8FBBC7" transform="translate(212,68)"/>
<path d="M0 0 C4.08378283 0.74250597 8.01939223 1.82923301 12 3 C11.67 3.66 11.34 4.32 11 5 C5.06 3.515 5.06 3.515 -1 2 C-0.67 1.34 -0.34 0.68 0 0 Z " fill="#8DBAC6" transform="translate(206,443)"/>
</svg>
